<svg xmlns="http://www.w3.org/2000/svg" viewBox="0 0 514.25183 421.85504">
  <path fill="#d9d9d9" d="M511.288 396.844c-1.3-2.11-8.56-9.597-8.96-10.002l.003-.004c-4.89-4.84-7.333-8.786-7.333-11.84 0-1.676.508-3.04 1.524-4.095 1.015-1.053 2.36-1.58 4.04-1.58 3.68 0 5.684 2.91 6.01 8.728l5.907-11.218c-.364-.582-.764-1.133-1.198-1.65-2.653-3.114-6.335-4.67-11.044-4.67-4.168 0-7.552 1.394-10.152 4.182-2.597 2.786-3.896 6.278-3.896 10.474 0 3.763.988 7.214 2.963 10.355 1.3 2.11 8.562 9.597 8.96 10l-.002.007c4.89 4.838 7.333 8.785 7.333 11.84 0 1.674-.507 3.04-1.52 4.094-1.016 1.054-2.363 1.58-4.04 1.58-3.68 0-5.684-2.91-6.01-8.728l-5.907 11.218c.362.582.762 1.133 1.197 1.652 2.653 3.113 6.333 4.67 11.044 4.67 4.168 0 7.552-1.394 10.15-4.184 2.598-2.786 3.898-6.278 3.898-10.473 0-3.765-.99-7.216-2.964-10.356"/>
  <path fill="#d9d9d9" d="M442.666 370.367v-9.034h-24v60h24V412H428v-17.334h14.666v-9.333H428v-14.855z"/>
  <path fill="#d9d9d9" d="M293.333 361.333v45.946c0 3.735-1.507 5.603-4.564 5.603-3.196 0-4.77-1.868-4.77-5.604v-45.947h-9.334v44.12c0 3.995 1.002 7.25 2.256 9.778 2.164 4.358 6.332 6.545 12.224 6.545 4.736 0 8.112-1.53 10.496-4.59 2.138-2.788 3.024-6.617 3.024-11.49v-44.362z"/>
  <path fill="#d9d9d9" d="M204 361.333v9.334h9.333v50.666h8v-50.666h7.313l2.02-7.352v-1.982z"/>
  <path fill="#d9d9d9" d="M8 421.333h9.333V400.56L8 419.222z"/>
  <path fill="#d9d9d9" d="M19.365 397.333h4.892c4.333 0 7.547-2.346 9.667-6.346 1.64-3.175 2.468-7.422 2.468-12.168 0-4.975-.768-8.433-2.29-11.024z"/>
  <path fill="#d9d9d9" d="M25.55 366.906c-2.24-3.12-6-4.24-11.28-4.24H0v56.556l9.333-18.663v-3.226h2.032L26.1 367.82c-.175-.3-.353-.64-.55-.914"/>
  <path fill="#d9d9d9" d="M80 421.333h9.333v-60H80z"/>
  <path fill="#d9d9d9" d="M374.702 421.145h-9.36l-5.6-25.333h-4.787v25.333h-8V362.48h12.694c5.265 0 9.04 1.212 11.28 4.332 1.892 2.653 2.84 6.58 2.84 12.127 0 6.985-1.908 12.04-5.72 14.683z"/>
  <path fill="#d9d9d9" d="M133.21 405.453V375.37c0-4.576 1.217-8.164 3.653-10.76 2.517-2.708 6.037-4.06 10.556-4.06 4.384 0 7.795 1.433 10.23 4.303 2.274 2.706 3.41 6.293 3.41 10.758v5.645h-9.296V374.8c0-4.06-1.557-6.09-4.67-6.09s-4.67 2.03-4.67 6.09v32.763c0 4.087 1.557 6.132 4.67 6.132s4.67-2.045 4.67-6.132v-7.997h9.297v6.13c0 4.873-1.096 8.702-3.287 11.49-2.41 3.06-5.97 4.588-10.678 4.588-9.256 0-13.886-5.44-13.886-16.32"/>
  <path fill="#d9d9d9" d="M103.988 0L0 205.643V0z"/>
  <path fill="#d9d9d9" d="M308.397.564L153.845 310.667H.737L154.193.574z"/>
  <path fill="#d9d9d9" d="M514.25.564L359.043 310.667H205.96L360.046.574z"/>
  <path fill="#d9d9d9" d="M513.333 98.84L407.82 310.668h105.513V98.38zM504 140v160h-80l80.405-159.394"/>
</svg>
